<svg width="240" height="48" viewBox="0 0 240 48" fill="none" xmlns="http://www.w3.org/2000/svg">
  <rect width="48" height="48" rx="24" fill="#B68A35"/>
  <path d="M24 10L33 20L24 38L15 20L24 10Z" fill="#FFF8E9"/>
  <path d="M24 16L29 21L24 31L19 21L24 16Z" fill="#B68A35"/>
  <rect x="48" width="48" height="48" rx="24" fill="#D17A96"/>
  <rect x="60" y="12" width="24" height="24" rx="8" stroke="#FFF8E9" stroke-width="3"/>
  <circle cx="72" cy="24" r="5" stroke="#FFF8E9" stroke-width="3"/>
  <circle cx="80.5" cy="15.5" r="1.5" fill="#FFF8E9"/>
  <rect x="96" width="48" height="48" rx="24" fill="#5177C3"/>
  <path d="M121.8 15H125V11.2C124.4 11.1 123.1 11 121.6 11C118.3 11 116 13 116 16.8V20H112V24.3H116V37H120.8V24.3H124.6L125.2 20H120.8V17.2C120.8 16 121.1 15 121.8 15Z" fill="#FFF8E9"/>
  <rect x="144" width="48" height="48" rx="24" fill="#44A984"/>
  <path d="M168.1 11.5C161.4 11.5 156 16.9 156 23.5C156 26.2 156.9 28.7 158.4 30.7L156.4 36.5L162.4 34.6C164.3 35.9 166.5 36.5 168.8 36.5C175.4 36.5 180.8 31.1 180.8 24.5C180.8 17.9 174.7 11.5 168.1 11.5Z" fill="#FFF8E9"/>
  <path d="M173.7 27.7C173.4 28.4 172.1 29 171.2 29.1C170.5 29.2 169.5 29.3 165.4 27.5C162 26.1 159.8 22.5 159.6 22.2C159.3 21.9 158.3 20.6 158.3 19.1C158.3 17.6 159.1 16.9 159.5 16.4C159.9 16 160.5 15.9 160.8 15.9C161.1 15.9 161.5 15.9 161.8 15.9C162.1 15.9 162.6 15.8 163 16.7C163.4 17.6 164.1 19.4 164.2 19.6C164.3 19.8 164.3 20.1 164.1 20.4C164 20.7 163.8 20.9 163.5 21.2C163.2 21.4 162.9 21.7 162.7 21.9C162.4 22.2 162.1 22.5 162.5 23C163 23.8 164.5 25.9 166.8 27.2C169.7 28.8 169.7 28.2 170.4 28.1C171 28 172.2 27.1 172.6 26.5C173 26 173.4 26 173.8 26.1C174.2 26.3 176.2 27.3 176.6 27.5C177 27.7 177.2 27.8 177.3 28C177.3 28.2 177.3 28.9 173.7 27.7Z" fill="#44A984"/>
  <rect x="192" width="48" height="48" rx="24" fill="#8D6C2F"/>
  <path d="M206 31L208.5 15L216 11L223.5 15L226 31L216 37L206 31Z" fill="#FFF8E9"/>
  <path d="M211 18L216 15L221 18L219.5 30L216 32L212.5 30L211 18Z" fill="#8D6C2F"/>
</svg>
